<svg width="60" height="35" viewBox="0 0 60 35" fill="none" xmlns="http://www.w3.org/2000/svg">
<rect width="60" height="35" rx="4" fill="#EF3466"/>
<path d="M35.1168 23.1553H24.4992C24.2879 23.1553 24.0852 23.2392 23.9358 23.3887C23.7863 23.5381 23.7024 23.7407 23.7024 23.9521C23.7024 24.1634 23.7863 24.3661 23.9358 24.5155C24.0852 24.6649 24.2879 24.7489 24.4992 24.7489H35.1168C35.3281 24.7489 35.5308 24.6649 35.6802 24.5155C35.8296 24.3661 35.9136 24.1634 35.9136 23.9521C35.9136 23.7407 35.8296 23.5381 35.6802 23.3887C35.5308 23.2392 35.3281 23.1553 35.1168 23.1553Z" fill="white"/>
<path d="M35.1168 19.8237H24.4992C24.2895 19.8263 24.0893 19.9113 23.9419 20.0605C23.7946 20.2096 23.712 20.4109 23.712 20.6205C23.7107 20.7252 23.7301 20.829 23.7689 20.9262C23.8078 21.0234 23.8654 21.1119 23.9385 21.1868C24.0116 21.2617 24.0988 21.3214 24.195 21.3626C24.2912 21.4038 24.3945 21.4257 24.4992 21.4269H35.1168C35.2214 21.4257 35.3248 21.4038 35.421 21.3626C35.5172 21.3214 35.6043 21.2617 35.6774 21.1868C35.7505 21.1119 35.8081 21.0234 35.847 20.9262C35.8859 20.829 35.9052 20.7252 35.904 20.6205C35.904 20.4109 35.8214 20.2096 35.674 20.0605C35.5266 19.9113 35.3264 19.8263 35.1168 19.8237V19.8237Z" fill="white"/>
<path d="M39.4945 15.1776C39.481 15.0496 39.4347 14.9273 39.3601 14.8224L32.0353 6.4224C31.9324 6.29386 31.7852 6.2083 31.6225 6.1824C31.0234 6.07438 30.4168 6.0134 29.8081 6C27.2808 6.00847 24.758 6.21389 22.2625 6.6144C21.8225 6.6863 21.4179 6.89939 21.1096 7.2215C20.8013 7.54361 20.6062 7.95726 20.5537 8.4C20.1267 11.5177 19.915 14.6612 19.9201 17.808C19.915 20.9548 20.1267 24.0983 20.5537 27.216C20.5983 27.6656 20.7899 28.088 21.0988 28.4178C21.4078 28.7475 21.8168 28.9662 22.2625 29.04C24.7574 29.4451 27.2806 29.6506 29.8081 29.6544C32.3357 29.6506 34.8589 29.4451 37.3537 29.04C37.7931 28.9666 38.197 28.7531 38.5049 28.4312C38.8129 28.1094 39.0085 27.6966 39.0625 27.2544C39.4896 24.1367 39.7013 20.9932 39.6961 17.8464C39.7028 16.9528 39.6353 16.0601 39.4945 15.1776ZM32.2657 9.1008L36.9505 14.4192H32.7361C32.6732 14.4206 32.6106 14.409 32.5523 14.3852C32.4939 14.3615 32.4411 14.326 32.397 14.281C32.3529 14.2361 32.3185 14.1825 32.296 14.1237C32.2734 14.0649 32.2631 14.0021 32.2657 13.9392V9.1008ZM37.4785 27.0048C37.4635 27.1068 37.4177 27.2018 37.3475 27.2772C37.2772 27.3527 37.1856 27.405 37.0849 27.4272C34.6786 27.8145 32.2454 28.0104 29.8081 28.0128C27.3677 28.01 24.9313 27.8142 22.5217 27.4272C22.4196 27.4102 22.3261 27.3593 22.2564 27.2826C22.1868 27.206 22.145 27.1081 22.1377 27.0048C21.7116 23.9578 21.4999 20.8846 21.5041 17.808C21.4999 14.7314 21.7116 11.6582 22.1377 8.6112C22.1534 8.51094 22.1981 8.41747 22.2664 8.34238C22.3346 8.2673 22.4234 8.2139 22.5217 8.1888C24.932 7.80741 27.3679 7.61163 29.8081 7.6032C30.1003 7.60294 30.3921 7.62219 30.6817 7.6608V13.9392C30.6766 14.2118 30.726 14.4826 30.8271 14.7357C30.9282 14.9889 31.0788 15.2193 31.2703 15.4134C31.4617 15.6075 31.6899 15.7614 31.9417 15.866C32.1934 15.9705 32.4635 16.0237 32.7361 16.0224H38.0353C38.0353 16.5504 38.1121 17.1552 38.1121 17.808C38.116 20.8846 37.9043 23.9578 37.4785 27.0048V27.0048Z" fill="white"/>
</svg>
