<svg width="60" height="35" viewBox="0 0 60 35" fill="none" xmlns="http://www.w3.org/2000/svg">
<rect width="60" height="35" rx="4" fill="#EF3466"/>
<path fill-rule="evenodd" clip-rule="evenodd" d="M35.3652 6.75872C35.3652 6.33969 35.0216 6 34.5977 6C34.1739 6 33.8303 6.33969 33.8303 6.75872V7.77504H26.181V6.75872C26.181 6.33969 25.8374 6 25.4135 6C24.9897 6 24.6461 6.33969 24.6461 6.75872V7.7907C23.069 7.8827 21.7034 8.38163 20.6988 9.32578C19.574 10.3828 19 11.9055 19 13.7527V23.9247C19 25.7948 19.5717 27.3394 20.6934 28.4143C21.8113 29.4855 23.3795 29.998 25.1918 29.998H34.8081C36.6217 29.998 38.1888 29.4957 39.3063 28.4408C40.4293 27.3808 41 25.8557 41 24.0098V13.7537C41.0054 11.9078 40.4376 10.3845 39.3151 9.32651C38.3121 8.38129 36.9459 7.88254 35.3652 7.79066V6.75872ZM33.8303 9.29248V10.4579C33.8303 10.8769 34.1739 11.2166 34.5977 11.2166C35.0216 11.2166 35.3652 10.8769 35.3652 10.4579V9.31112C36.6301 9.39971 37.5931 9.80005 38.256 10.4249C39.0054 11.1311 39.4698 12.2168 39.4651 13.7503L39.4651 13.7527V14.3223H20.5349V13.7527C20.5349 12.2197 21.0036 11.133 21.7563 10.4256C22.4219 9.80003 23.3855 9.39989 24.6461 9.31119V10.4579C24.6461 10.8769 24.9897 11.2166 25.4135 11.2166C25.8374 11.2166 26.181 10.8769 26.181 10.4579V9.29248H33.8303ZM20.5349 15.8397V23.9247C20.5349 25.4878 21.0059 26.6005 21.7617 27.3246C22.5212 28.0524 23.6652 28.4806 25.1918 28.4806H34.8081C36.344 28.4806 37.4891 28.0581 38.2464 27.3433C38.9983 26.6336 39.4651 25.5439 39.4651 24.0098V15.8397H20.5349Z" fill="white"/>
<path d="M25.069 20C25.6276 20 26.0805 19.5523 26.0805 19C26.0805 18.4477 25.6276 18 25.069 18C24.5104 18 24.0575 18.4477 24.0575 19C24.0575 19.5523 24.5104 20 25.069 20Z" fill="white"/>
<path d="M25.069 25C25.6276 25 26.0805 24.5523 26.0805 24C26.0805 23.4477 25.6276 23 25.069 23C24.5104 23 24.0575 23.4477 24.0575 24C24.0575 24.5523 24.5104 25 25.069 25Z" fill="white"/>
<path d="M30.1265 20C30.6851 20 31.138 19.5523 31.138 19C31.138 18.4477 30.6851 18 30.1265 18C29.5679 18 29.115 18.4477 29.115 19C29.115 19.5523 29.5679 20 30.1265 20Z" fill="white"/>
<path d="M30.1265 25C30.6851 25 31.138 24.5523 31.138 24C31.138 23.4477 30.6851 23 30.1265 23C29.5679 23 29.115 23.4477 29.115 24C29.115 24.5523 29.5679 25 30.1265 25Z" fill="white"/>
<path d="M35.1839 20C35.7425 20 36.1954 19.5523 36.1954 19C36.1954 18.4477 35.7425 18 35.1839 18C34.6252 18 34.1724 18.4477 34.1724 19C34.1724 19.5523 34.6252 20 35.1839 20Z" fill="white"/>
<path d="M35.1839 25C35.7425 25 36.1954 24.5523 36.1954 24C36.1954 23.4477 35.7425 23 35.1839 23C34.6252 23 34.1724 23.4477 34.1724 24C34.1724 24.5523 34.6252 25 35.1839 25Z" fill="white"/>
</svg>
