<svg width="60" height="35" viewBox="0 0 60 35" fill="none" xmlns="http://www.w3.org/2000/svg">
<rect width="60" height="35" rx="4" fill="#EF3466"/>
<g clip-path="url(#clip0_8289_69071)">
<path fill-rule="evenodd" clip-rule="evenodd" d="M18.78 29.2499C18.78 28.8523 19.1023 28.5299 19.5 28.5299H40.5C40.8976 28.5299 41.22 28.8523 41.22 29.2499C41.22 29.6476 40.8976 29.9699 40.5 29.9699H19.5C19.1023 29.9699 18.78 29.6476 18.78 29.2499Z" fill="white"/>
<path fill-rule="evenodd" clip-rule="evenodd" d="M18.78 26.2499C18.78 25.8523 19.1023 25.5299 19.5 25.5299H40.5C40.8976 25.5299 41.22 25.8523 41.22 26.2499C41.22 26.6476 40.8976 26.9699 40.5 26.9699H19.5C19.1023 26.9699 18.78 26.6476 18.78 26.2499Z" fill="white"/>
<path fill-rule="evenodd" clip-rule="evenodd" d="M21 15.0299C21.3976 15.0299 21.72 15.3523 21.72 15.7499V23.2499C21.72 23.6476 21.3976 23.9699 21 23.9699C20.6023 23.9699 20.28 23.6476 20.28 23.2499V15.7499C20.28 15.3523 20.6023 15.0299 21 15.0299Z" fill="white"/>
<path fill-rule="evenodd" clip-rule="evenodd" d="M24 15.0299C24.3976 15.0299 24.72 15.3523 24.72 15.7499V23.2499C24.72 23.6476 24.3976 23.9699 24 23.9699C23.6023 23.9699 23.28 23.6476 23.28 23.2499V15.7499C23.28 15.3523 23.6023 15.0299 24 15.0299Z" fill="white"/>
<path fill-rule="evenodd" clip-rule="evenodd" d="M28.5 15.0299C28.8976 15.0299 29.22 15.3523 29.22 15.7499V23.2499C29.22 23.6476 28.8976 23.9699 28.5 23.9699C28.1023 23.9699 27.78 23.6476 27.78 23.2499V15.7499C27.78 15.3523 28.1023 15.0299 28.5 15.0299Z" fill="white"/>
<path fill-rule="evenodd" clip-rule="evenodd" d="M31.5 15.0299C31.8976 15.0299 32.22 15.3523 32.22 15.7499V23.2499C32.22 23.6476 31.8976 23.9699 31.5 23.9699C31.1023 23.9699 30.78 23.6476 30.78 23.2499V15.7499C30.78 15.3523 31.1023 15.0299 31.5 15.0299Z" fill="white"/>
<path fill-rule="evenodd" clip-rule="evenodd" d="M36 15.0299C36.3976 15.0299 36.72 15.3523 36.72 15.7499V23.2499C36.72 23.6476 36.3976 23.9699 36 23.9699C35.6023 23.9699 35.28 23.6476 35.28 23.2499V15.7499C35.28 15.3523 35.6023 15.0299 36 15.0299Z" fill="white"/>
<path fill-rule="evenodd" clip-rule="evenodd" d="M39 15.0299C39.3976 15.0299 39.72 15.3523 39.72 15.7499V23.2499C39.72 23.6476 39.3976 23.9699 39 23.9699C38.6023 23.9699 38.28 23.6476 38.28 23.2499V15.7499C38.28 15.3523 38.6023 15.0299 39 15.0299Z" fill="white"/>
<path fill-rule="evenodd" clip-rule="evenodd" d="M30 7.46979C29.8504 7.46979 29.704 7.51277 29.5782 7.59362C29.5712 7.59813 29.5642 7.60251 29.557 7.60677L22.1193 12.0299H37.8806L30.4429 7.60677C30.4358 7.60251 30.4287 7.59813 30.4217 7.59362C30.2959 7.51277 30.1495 7.46979 30 7.46979ZM28.8113 6.37485C29.1667 6.14951 29.5789 6.02979 30 6.02979C30.421 6.02979 30.8333 6.14951 31.1887 6.37485L40.868 12.1311C41.1466 12.2968 41.2801 12.6282 41.1942 12.9408C41.1083 13.2533 40.8241 13.4699 40.5 13.4699H19.5C19.1758 13.4699 18.8916 13.2533 18.8057 12.9408C18.7198 12.6282 18.8533 12.2968 19.132 12.1311L28.8113 6.37485Z" fill="white"/>
</g>
<defs>
<clipPath id="clip0_8289_69071">
<rect width="24" height="24" fill="white" transform="translate(18 6)"/>
</clipPath>
</defs>
</svg>
