<svg width="60" height="35" viewBox="0 0 60 35" fill="none" xmlns="http://www.w3.org/2000/svg">
<rect width="60" height="35" rx="4" fill="#EF3466"/>
<path d="M30.6083 23.3774C34.4013 23.3774 36.5541 21.5592 38.6043 18.933C39.732 17.5188 41.1671 17.2158 42.1923 18.0239C43.2174 18.8319 43.3199 20.3471 42.1923 21.7612C39.2194 25.5996 35.4264 27.9229 30.6083 27.9229C25.3802 27.9229 20.7671 25.0946 17.5892 20.1451C16.6666 18.8319 16.8716 17.4178 17.8967 16.7107C18.9219 16.0037 20.4596 16.3067 21.3822 17.7208C23.6374 21.0542 26.7128 23.3774 30.6083 23.3774ZM37.6817 10.9532C37.6817 12.7713 36.2465 13.9835 34.6063 13.9835C32.9661 13.9835 31.5309 12.7713 31.5309 10.9532C31.5309 9.13497 32.9661 7.92285 34.6063 7.92285C36.2465 7.92285 37.6817 9.23598 37.6817 10.9532Z" fill="white"/>
</svg>
