<svg width="60" height="36" viewBox="0 0 60 36" fill="none" xmlns="http://www.w3.org/2000/svg">
<rect width="60" height="35" rx="4" fill="#EF3466"/>
<g clip-path="url(#clip0_8289_69072)">
<path d="M24.8834 28.3904C29.5879 30.6403 35.3939 29.5268 38.9015 25.3475C43.0589 20.3939 42.4132 13.0091 37.4591 8.85303L34.1658 12.7771C38.0361 16.024 38.5406 21.7934 35.2926 25.6635C32.7028 28.7492 28.4387 29.7796 24.8834 28.3904Z" fill="white"/>
<path d="M34.9807 7.25155C30.2763 5.00158 24.4703 6.11506 20.9627 10.2944C16.8053 15.248 17.451 22.6328 22.405 26.7889L25.6983 22.8648C21.828 19.6179 21.3236 13.8485 24.5716 9.97849C27.1614 6.89269 31.4254 5.86237 34.9807 7.25155Z" fill="white"/>
</g>
<defs>
<clipPath id="clip0_8289_69072">
<rect width="24" height="24" fill="white" transform="translate(18 6)"/>
</clipPath>
</defs>
</svg>
