<svg width="60" height="35" viewBox="0 0 60 35" fill="none" xmlns="http://www.w3.org/2000/svg">
<rect width="60" height="35" rx="4" fill="#EF3466"/>
<path d="M26.8391 29.9993C26.7358 30.0041 26.6327 29.9845 26.5381 29.9418C26.3873 29.8752 26.2632 29.7583 26.1863 29.6103C26.1094 29.4624 26.0842 29.2922 26.1148 29.1278L27.6951 20.5082H21.7314C21.5923 20.5044 21.4567 20.4624 21.3391 20.3865C21.2216 20.3106 21.1263 20.2038 21.0636 20.0773C21.0081 19.9477 20.9884 19.8052 21.0066 19.6651C21.0248 19.525 21.0803 19.3927 21.167 19.2823L31.5518 6.27644C31.6547 6.14555 31.7984 6.0543 31.9592 6.01774C32.1199 5.98118 32.2881 6.00149 32.436 6.07532C32.583 6.14817 32.7023 6.26836 32.7754 6.41727C32.8486 6.56618 32.8714 6.73549 32.8404 6.89896L31.279 14.6182H37.2709C37.4073 14.6208 37.5404 14.6616 37.6555 14.7361C37.7706 14.8107 37.8634 14.916 37.9237 15.0406C37.9839 15.1653 38.0093 15.3044 37.997 15.4427C37.9847 15.5811 37.9353 15.7133 37.8541 15.825L27.4223 29.7024C27.3532 29.7932 27.2649 29.8671 27.164 29.9185C27.063 29.9699 26.952 29.9975 26.8391 29.9993V29.9993ZM23.2647 18.9854H28.5887C28.6952 18.9839 28.8006 19.0073 28.8968 19.0538C28.9931 19.1003 29.0775 19.1687 29.1437 19.2536C29.2129 19.3376 29.2631 19.436 29.2907 19.5419C29.3184 19.6479 29.3228 19.7587 29.3036 19.8666L28.1278 26.3025L35.7941 16.1027H30.376C30.2673 16.1031 30.1601 16.0783 30.0623 16.0302C29.9645 15.982 29.8787 15.9119 29.8116 15.825C29.744 15.7402 29.6955 15.6414 29.6695 15.5355C29.6435 15.4296 29.6406 15.3192 29.6611 15.212L30.7992 9.6189L23.2647 18.9854Z" fill="white"/>
</svg>
