<svg width="566" height="150" viewBox="0 0 566 150" fill="none" xmlns="http://www.w3.org/2000/svg">
<path d="M172.257 42.9921V30.5742H242.471V43.3503L190.305 112.365H243.681V124.783H172.146V112.007L225.963 43.1115H172.257V42.9921Z" fill="#0A1018"/>
<path d="M326.887 58.9219V106.959C327.328 111.369 330.965 114.349 338.239 115.303L337.357 126.626C327.328 126.626 319.613 124.123 314.653 119.236C303.301 124.123 291.507 126.626 280.155 126.626C271.117 126.626 264.725 124.123 259.765 119.236C254.805 114.349 252.932 107.435 252.932 98.138C252.932 88.8406 255.246 82.4039 260.206 77.9935C263.953 74.2984 270.015 71.9144 277.73 70.4841C280.596 69.8881 288.972 69.0537 288.972 69.0537L312.779 66.789V58.9219C312.779 52.4852 311.457 48.0748 308.701 45.2141C305.946 42.2341 301.868 41.2806 297.349 41.2806C288.752 41.2806 280.155 41.6382 271.338 42.5918C269.464 42.8302 258.663 44.0221 258.663 44.0221L258.332 32.46C272.44 29.9568 284.674 28.5264 295.585 28.5264C306.497 28.5264 314.212 31.0295 319.172 35.9167C324.131 40.8038 326.887 48.5516 326.887 58.9219ZM266.819 96.946C266.819 108.627 271.779 113.991 281.257 113.991C289.854 113.991 298.341 112.561 306.938 109.581L311.457 108.151V77.3975L283.021 80.3775C277.179 80.8543 273.101 82.2847 270.346 85.2647C268.252 87.7678 266.819 91.5821 266.819 96.946Z" fill="#0A1018"/>
<path d="M337.417 30.5742H352.839L375.422 112.365H382.693L405.276 30.5742H420.258L393.048 124.783H364.076L337.417 30.5742Z" fill="#0A1018"/>
<path d="M499.019 111.83L499.46 123.033C485.018 124.939 472.45 126.012 461.977 126.012C447.976 126.012 438.495 122.079 432.652 114.333C426.809 106.586 424.163 94.3113 424.163 77.7459C424.163 45.0918 437.723 28.5264 464.292 28.5264C477.411 28.5264 486.892 31.9825 493.176 39.2522C499.681 45.8068 502.878 56.4134 503.098 70.5953C503.098 70.8337 502.988 74.1706 502.767 77.0308C502.547 80.1294 502.216 82.9896 502.216 82.9896H439.046C439.046 93.2387 440.81 100.985 444.889 105.871C448.527 110.757 455.252 113.141 464.733 113.141C471.017 113.26 488.215 112.426 499.019 111.83ZM489.207 72.5021C489.207 60.8229 487.443 52.9573 483.364 48.0711C479.726 43.1849 473.442 40.8014 464.843 40.8014C456.244 40.8014 449.96 43.1849 445.881 48.0711C441.802 52.9573 439.597 61.1804 439.597 71.9062H489.207V72.5021Z" fill="#0A1018"/>
<path d="M517.392 125.534V31.7851H531.501V44.4442C542.523 37.1592 553.655 32.2628 566 29.7549V43.6083C560.599 44.5637 550.128 47.7881 536.351 54.3565L531.391 56.745V126.012H517.282V125.534H517.392Z" fill="#0A1018"/>
<path d="M75.186 150C116.71 150 150.372 116.421 150.372 75C150.372 33.5786 116.71 0 75.186 0C33.6619 0 0 33.5786 0 75C0 116.421 33.6619 150 75.186 150Z" fill="#EF3466"/>
<path fill-rule="evenodd" clip-rule="evenodd" d="M85.426 69.6953C84.9315 70.8055 83.6953 71.5456 82.459 71.5456H47.3243C46.7726 71.5456 46.4566 72.173 46.7857 72.6148L83.9191 122.457C84.1378 122.751 84.08 123.165 83.7891 123.388L79.5693 126.619C79.2646 126.853 78.8242 126.769 78.6266 126.44L36.7172 70.1886C35.8518 69.2018 35.7282 67.8448 36.3463 66.7346C36.5935 66.2412 37.3353 65.131 39.3133 65.131H74.4694C75.0171 65.131 75.3342 64.5116 75.0132 64.0688L50.9557 30.8849C50.7389 30.5858 50.8055 30.168 51.1047 29.9509L55.4614 26.7893C55.7607 26.5721 56.1796 26.6376 56.398 26.9358L85.1788 66.2411C85.9206 67.228 86.0442 68.585 85.426 69.6953ZM78.8199 31.9754C79.1219 31.7562 79.545 31.8252 79.7615 32.1288L113.489 79.4405C114.107 80.4274 114.231 81.7843 113.613 82.8946C112.995 84.1282 111.635 84.3749 110.646 84.3749H75.6401C75.0874 84.3749 74.7717 85.0042 75.1028 85.4458L88.2431 102.966C88.4633 103.259 88.4059 103.675 88.1144 103.898L83.8592 107.157C83.5643 107.383 83.1414 107.326 82.9164 107.031L64.904 83.388C64.0387 82.2778 63.915 80.9208 64.5332 79.8106C65.0277 78.7004 66.2639 77.9602 67.5002 77.9602H103.036C103.582 77.9602 103.899 77.3442 103.582 76.9011L74.316 36.0652C74.1017 35.7661 74.1692 35.3504 74.4672 35.1341L78.8199 31.9754Z" fill="white"/>
</svg>
