<svg width="400" height="400" viewBox="0 0 400 400" fill="none" xmlns="http://www.w3.org/2000/svg">
<path d="M400 0H0V400H400V0Z" fill="#E01D78"/>
<path d="M302.116 205.534L212.625 80.031C212.305 79.5821 211.681 79.477 211.232 79.7961L199.406 88.1884C198.955 88.5085 198.85 89.1339 199.171 89.5843L278.201 200.481C278.673 201.143 278.199 202.062 277.386 202.062H181.443C178.405 202.062 175.583 203.364 174.064 205.969C172.328 209.007 172.545 212.697 174.498 215.301L222.511 278.319C222.845 278.756 223.469 278.842 223.909 278.511L235.552 269.731C235.994 269.397 236.082 268.768 235.747 268.327L199.157 220.162C198.657 219.503 199.127 218.557 199.954 218.557H295.388C298.426 218.557 301.248 216.82 302.767 213.999C304.069 211.394 303.852 207.922 302.116 205.534Z" fill="white"/>
<path d="M219.859 182.963C222.897 182.963 225.719 181.226 227.238 178.405C228.54 175.583 228.323 172.328 226.587 169.723L150.349 65.4876C150.022 65.0406 149.393 64.9445 148.948 65.2733L137.317 73.8534C136.874 74.18 136.778 74.8029 137.103 75.2474L202.639 165.095C203.121 165.756 202.649 166.685 201.831 166.685H105.697C102.442 166.685 99.6201 168.421 98.3179 171.243C96.7986 174.064 97.2327 177.32 99.186 179.924L215.784 334.741C216.117 335.182 216.744 335.27 217.185 334.937L228.827 326.158C229.268 325.826 229.356 325.199 229.024 324.758L123.399 184.564C122.902 183.905 123.372 182.963 124.197 182.963H219.859Z" fill="white"/>
</svg>
